HIERARCHY
ROOT pelvis
{
  OFFSET 0 100 0
  CHANNELS 6 Xposition Yposition Zposition Zrotation Xrotation Yrotation
  JOINT pelvis_right_femur
  {
    OFFSET -10.78128 -3.44521 -0.5502486
    CHANNELS 3 Zrotation Xrotation Yrotation
    JOINT right_femur_tibia
    {
      OFFSET -0.8047443 -44.0398 -0.1307829
      CHANNELS 3 Zrotation Xrotation Yrotation
      JOINT right_tibia_foot
      {
        OFFSET 3.006224 -47.83518 -5
        CHANNELS 3 Zrotation Xrotation Yrotation
        End Site
        {
          OFFSET 0 -5 15
        }
      }
    }
  }
  JOINT pelvis_left_femur
  {
    OFFSET 10.78128 -3.44521 -0.5502486
    CHANNELS 3 Zrotation Xrotation Yrotation
    JOINT left_femur_tibia
    {
      OFFSET 0.8047443 -44.0398 -0.1307829
      CHANNELS 3 Zrotation Xrotation Yrotation
      JOINT left_tibia_foot
      {
        OFFSET -4.370144 -48.10324 -4.275266
        CHANNELS 3 Zrotation Xrotation Yrotation
        End Site
        {
          OFFSET 0 -5 15
        }
      }
    }
  }
  JOINT pelvis_spine1
  {
    OFFSET 0 6.468898 -3.129235
    CHANNELS 3 Zrotation Xrotation Yrotation
    JOINT spine1
    {
      OFFSET 0 23.15396 4.99043
      CHANNELS 3 Zrotation Xrotation Yrotation
      JOINT spine2
      {
        OFFSET 0 20.79997 -5.064912
        CHANNELS 3 Zrotation Xrotation Yrotation
        JOINT neck
        {
          OFFSET 0 14.38658 9.616178
          CHANNELS 3 Zrotation Xrotation Yrotation
          End Site
          {
            OFFSET 0 20 0
          }
        }
      }
      JOINT right_manubrium
      {
        OFFSET -5.722621 16.35077 3.967754
        CHANNELS 3 Zrotation Xrotation Yrotation
        JOINT right_clavicle
        {
          OFFSET -13.16364 1.694482 -4.693211
          CHANNELS 3 Zrotation Xrotation Yrotation
          JOINT right_humerus
          {
            OFFSET -28.5034 -0.3100689 -2.792744
            CHANNELS 3 Zrotation Xrotation Yrotation
            JOINT right_radius
            {
              OFFSET -25.15693 0.02248979 -1.271978
              CHANNELS 3 Zrotation Xrotation Yrotation
              End Site
              {
                OFFSET -15 0 0
              }
            }
          }
        }
      }
      JOINT left_manubrium
      {
        OFFSET 5.722621 16.35077 3.967754
        CHANNELS 3 Zrotation Xrotation Yrotation
        JOINT left_clavicle
        {
          OFFSET 13.16364 1.694482 -4.693211
          CHANNELS 3 Zrotation Xrotation Yrotation
          JOINT left_humerus
          {
            OFFSET 29.39168 -1.063119 -2.237045
            CHANNELS 3 Zrotation Xrotation Yrotation
            JOINT left_radius
            {
              OFFSET 24.59957 -0.9528479 0.9047498
              CHANNELS 3 Zrotation Xrotation Yrotation
              End Site
              {
                OFFSET 15 -0 -0
              }
            }
          }
        }
      }
    }
  }
}
MOTION
Frames: 9
Frame Time: 0.0416666666667
0 103.5113 0 0.7058773 -0.9622905 -0.05422086 4.570757 -18.01685 9.598276 -0 38.13217 -0 -6.803286 -15.68947 -2.534378 -7.280956 9.599012 -24.24432 -0 4.433072 -0 10.55161 -18.15286 29.25169 -3.870285 -3.001841 4.678232 2.576724 9.421166 -6.999458 1.659274 22.51203 6.817119 3.390805 -25.23316 9.749763 6.313033 -20.26671 11.5893 84.5857 35.1037 -17.31484 -0 0 16.47455 -5.510986 6.811444 3.786328 6.022447 -19.13661 -1.270755 -95.42588 26.87972 23.21629 0 0 -14.55698 9.385243 18.16577 3.226904
0.356864 103.7808 1.095363 0.7092447 -0.9912903 -0.1234918 4.577501 -17.98774 9.600517 -0 38.17723 -0 -6.813619 -15.69343 -2.531662 -7.288695 9.60301 -24.25004 -0 4.478074 -0 10.62697 -18.12252 29.30377 -3.871361 -3.012035 4.683502 2.576383 9.43127 -6.988534 1.670189 22.51905 6.799898 3.380329 -25.23746 9.753807 6.283065 -20.27996 11.58684 84.59389 35.0302 -17.29098 -0 0 16.48064 -5.499113 6.776967 3.76712 6.022673 -19.12953 -1.274195 -95.40711 26.78333 23.19108 0 0 -14.50197 9.506469 18.1721 3.064249
0.6445837 103.8655 2.684795 0.5770555 -0.9192129 -0.1185679 4.455816 -20.39969 7.971335 -0 34.28453 -0 -7.16062 -13.11465 -2.420484 -6.912931 11.22049 -22.76435 -0 4.473724 -0 9.520015 -18.93964 27.52252 -3.595284 -2.80648 4.269011 2.540699 9.56696 -7.299456 1.537484 22.39306 6.948 3.478695 -25.01795 9.541772 5.571596 -19.84825 11.49425 85.96594 34.21199 -18.5921 -0 0 15.10013 -7.010148 7.117954 4.272806 6.397074 -20.1915 -1.837077 -93.65003 26.15123 20.9638 0 0 -16.72789 9.715977 17.63208 2.641933
0.9008326 103.855 4.622109 0.3495609 -0.1828247 -0.05682948 4.706322 -22.45041 7.42526 -0 31.14391 -0 -6.915274 -12.26293 -2.386497 -6.641307 11.94529 -21.87131 -0 4.27044 -0 8.474343 -19.56208 26.07886 -3.334749 -2.716565 4.136863 2.614983 9.446796 -7.601282 1.42098 22.02723 7.136197 3.553589 -25.08191 9.506577 5.44858 -19.53523 11.43929 86.41636 34.40825 -19.46235 -0 0 14.65264 -7.58576 7.640346 4.490944 6.673443 -20.70467 -1.864298 -92.88304 26.19595 20.1078 0 0 -18.39765 9.295557 17.09934 3.211965
1.122072 103.7283 6.963782 0.1100909 0.4680428 0.06206419 4.986271 -24.54936 6.778134 -0 27.85 -0 -6.757042 -11.1848 -2.326155 -6.37667 12.78917 -20.85619 -0 4.510516 -0 7.565152 -20.05253 24.62684 -3.034544 -2.652616 3.997641 2.687238 9.379372 -7.883774 1.339554 21.66693 7.265881 3.59685 -25.15952 9.470031 5.157007 -19.22651 11.36836 87.00636 34.25675 -20.34132 -0 0 14.09924 -8.224886 8.06572 4.670878 6.97051 -21.2687 -1.934234 -91.94647 25.77005 19.0258 0 0 -20.00511 9.373647 16.53192 3.111394
1.315201 103.5209 9.735091 -0.178868 1.244017 0.2322178 5.388081 -26.61572 6.298203 -0 24.61046 -0 -6.557215 -10.23064 -2.253142 -6.122615 13.51486 -19.86242 -0 5.155922 -0 6.639469 -20.39394 23.13101 -2.694541 -2.622351 3.90633 2.781596 9.29221 -8.164633 1.271192 21.24476 7.38682 3.632267 -25.31793 9.463076 4.914882 -18.92399 11.29848 87.51126 34.18287 -21.18407 -0 0 13.63675 -8.719777 8.509098 4.786657 7.250935 -21.76129 -1.915228 -91.13683 25.27396 18.14339 0 0 -21.49101 9.526487 15.93213 2.952902
1.484807 103.2667 12.97876 -0.5152645 2.072887 0.4517806 5.876503 -28.59743 5.894112 -0 21.45937 -0 -6.396842 -9.183754 -2.153292 -5.871402 14.15973 -18.82584 -0 6.427003 -0 5.629688 -20.54174 21.51498 -2.305319 -2.610241 3.838757 2.882486 9.219436 -8.441468 1.2097 20.78563 7.500546 3.669919 -25.52902 9.461865 4.688211 -18.61031 11.23209 88.01959 34.12548 -22.03184 -0 0 13.16197 -9.166142 8.970483 4.878396 7.501849 -22.22651 -1.860153 -90.40058 24.68511 17.39506 0 0 -22.8759 9.747067 15.29831 2.738099
1.637639 103.0203 16.74069 -0.9032342 2.934638 0.7186621 6.450555 -30.377 5.579498 -0 18.54269 -0 -6.308442 -7.988543 -2.021322 -5.620361 14.66546 -17.74544 -0 8.543501 -0 4.466842 -20.42354 19.74016 -1.861979 -2.608035 3.795976 2.982515 9.172806 -8.709573 1.148481 20.2981 7.614477 3.720363 -25.78583 9.456315 4.508071 -18.27824 11.17637 88.53581 34.13712 -22.88839 -0 0 12.65565 -9.571998 9.470732 4.963487 7.694787 -22.65367 -1.775157 -89.77991 24.0843 16.85306 0 0 -24.11994 9.93845 14.6373 2.604793
1.781978 102.8546 21.06669 -1.334922 3.759778 1.026174 7.088893 -31.77857 5.342067 -0 16.04069 -0 -6.345762 -6.568869 -1.852915 -5.367647 14.9663 -16.61287 -0 11.78828 -0 3.109207 -19.94188 17.79954 -1.364121 -2.603265 3.776536 3.068243 9.177988 -8.955793 1.083643 19.80973 7.727205 3.790888 -26.06402 9.428592 4.387427 -17.92427 11.14028 89.08262 34.22461 -23.74844 -0 0 12.0791 -9.96685 10.01517 5.063021 7.794309 -23.03785 -1.686116 -89.29922 23.52617 16.56036 0 0 -25.16408 10.03215 13.96599 2.645955
